# xmcd CD database file
#
# Track frame offsets:
#	150
#	18293
#	28651
#	41337
#	58550
#	67244
#	76708
#	95482
#	113652
#	129958
#	143628
#	162105
#	174895
#	188493
#	201177
#	226543
#	237956
#	248564
#	259565
#	274972
#	289954
#	304854
#
# Disc length: 4298 seconds
#
# Revision: 0
# Processed by: cddbd v1.5.2PL0 Copyright (c) Steve Scherf et al.
# Submitted via: CDex 1.50beta9
#
DISCID=1910c816
DTITLE=Various Artist - A Trip to Brazil - Vol. 5: Copa do Mundo 2006
DYEAR=2006
DGENRE=Jazz
TTITLE0=Nelson Angelo - 1 x 0
TTITLE1=Milton Nascimento - O Jogo
TTITLE2=Fabio Fonseca Trio - Samba Da Copa
TTITLE3=Jorge Ben - Ponta De Lança Africano (Umbabarauma)
TTITLE4=Elis Regina - Meio De Campo
TTITLE5=Jackson do Pandeiro - O Rei Pelé
TTITLE6=Pelé and Gracinha Leporace - Meu Mundo É Uma Bola (My World Is A Ball)
TTITLE7=Jorge Ben - Camisa 10 Da Gávea
TTITLE8=Tania Maria with Boto and Helio - Fio Maravilha
TTITLE9=João Nogueira - Samba Rubro-Negro
TTITLE10=Marcelo Salazar - Caminho Do Gol
TTITLE11=Chico Buarque - O Futebol
TTITLE12=Sylvia - Que Bonito É
TTITLE13=Milton Nascimento - Aqui É O País Do Futebol
TTITLE14=Azymuth - Maracanã
TTITLE15=Marcos Valle - Paz E Futebol
TTITLE16=Cesar Mariano - Futebol De Bar
TTITLE17=MPB 4 - Obrigado Pelé
TTITLE18=Naná Vasconcelos - Futebol
TTITLE19=Elis Regina and Pelé - Perdão, Não Tem
TTITLE20=Jorge Ben - Cadê O Penalty?
TTITLE21=Shank - É Uma Partida De Futebol
EXTD=YEAR: 2006
EXTT0=
EXTT1=
EXTT2=
EXTT3=
EXTT4=
EXTT5=
EXTT6=
EXTT7=
EXTT8=
EXTT9=
EXTT10=
EXTT11=
EXTT12=
EXTT13=
EXTT14=
EXTT15=
EXTT16=
EXTT17=
EXTT18=
EXTT19=
EXTT20=
EXTT21=
PLAYORDER=
